<svg width="113" height="140" viewBox="0 0 113 140" fill="none" xmlns="http://www.w3.org/2000/svg">
<path fill-rule="evenodd" clip-rule="evenodd" d="M56.181 22.2169C57.993 22.2169 59.4111 23.7138 59.4111 25.5259C59.4111 26.6289 58.8596 27.6531 57.993 28.2046C57.7567 27.4167 57.0476 26.8652 56.181 26.8652C55.3143 26.8652 54.6053 27.4167 54.3689 28.2046C53.5023 27.6531 52.9508 26.6289 52.9508 25.5259C52.9508 23.7138 54.3689 22.2169 56.181 22.2169ZM56.181 98.0864C58.3081 98.0864 60.3565 97.85 62.4837 97.4561V48.6097C62.4837 38.6041 72.3318 36.6345 87.3008 46.1674L90.4522 44.5917L81.392 31.1984H59.7263C61.6171 30.0166 62.8776 27.9682 62.8776 25.5259C62.8776 21.823 59.8838 18.8292 56.181 18.8292C52.4781 18.8292 49.4843 21.823 49.4843 25.5259C49.4843 27.9682 50.7448 30.0166 52.6357 31.1984H30.9699L21.9097 44.5917L25.0611 46.1674C39.9514 36.6345 49.8782 38.6041 49.8782 48.6097V97.4561C51.9266 97.85 54.0538 98.0864 56.181 98.0864Z" fill="white"/>
<path fill-rule="evenodd" clip-rule="evenodd" d="M112.189 83.354L109.904 82.251L97.2988 98.9533L98.0079 100.135C99.1896 100.371 100.45 100.765 101.632 101.159C93.6747 109.747 83.354 116.207 71.7726 119.595C71.1424 119.831 70.5121 119.91 69.803 119.91C65.785 119.91 62.4761 116.601 62.4761 112.583V105.492C78.6269 102.577 92.7293 92.3354 100.371 77.6027L95.5656 75.2392C86.8993 90.3658 72.7181 99.0321 56.1733 99.0321C34.5076 99.0321 16.9387 78.4693 16.9387 53.1795C16.9387 27.8897 34.5076 7.32696 56.1733 7.32696C72.009 7.32696 86.269 18.3568 92.4142 35.453L92.5717 36.0833L95.8019 34.5076L91.5475 1.26055H87.5295L84.2206 10.0056C75.1604 3.46652 64.4457 0 53.1795 0C23.8717 0 0 23.8717 0 53.1795C0 81.3844 22.0597 104.547 49.8706 106.201V112.583C49.8706 116.601 46.6404 119.91 42.6224 119.91C41.9133 119.91 41.2043 119.831 40.574 119.595C28.9927 116.207 18.6719 109.747 10.7147 101.159C11.8965 100.765 13.157 100.371 14.4176 100.135L15.0478 98.9533L2.44232 82.251L0.157569 83.354L1.57569 103.602L2.83624 104.311C3.78165 103.838 4.72707 103.365 5.75127 102.971C24.4232 127.71 49.1615 127.394 55.7794 140H56.5672C63.1851 127.394 87.9235 127.71 106.674 102.971C107.62 103.365 108.565 103.838 109.51 104.311L110.771 103.602L112.189 83.354Z" fill="white"/>
</svg>
