<svg width="34" height="42" viewBox="0 0 34 42" fill="none" xmlns="http://www.w3.org/2000/svg">
<path fill-rule="evenodd" clip-rule="evenodd" d="M17.0269 6.66476C17.576 6.66476 18.0058 7.11383 18.0058 7.65744C18.0058 7.98834 17.8387 8.2956 17.576 8.46104C17.5044 8.22469 17.2895 8.05924 17.0269 8.05924C16.7642 8.05924 16.5493 8.22469 16.4777 8.46104C16.2151 8.2956 16.0479 7.98834 16.0479 7.65744C16.0479 7.11383 16.4777 6.66476 17.0269 6.66476ZM17.0269 29.4256C17.6715 29.4256 18.2923 29.3547 18.937 29.2365V14.5826C18.937 11.5809 21.9215 10.99 26.458 13.8499L27.4131 13.3772L24.6673 9.35919H18.1013C18.6743 9.00466 19.0564 8.39014 19.0564 7.65744C19.0564 6.54658 18.1491 5.64844 17.0269 5.64844C15.9047 5.64844 14.9974 6.54658 14.9974 7.65744C14.9974 8.39014 15.3794 9.00466 15.9524 9.35919H9.38641L6.64062 13.3772L7.59568 13.8499C12.1083 10.99 15.1167 11.5809 15.1167 14.5826V29.2365C15.7375 29.3547 16.3822 29.4256 17.0269 29.4256Z" fill="#2E2E2E"/>
<path fill-rule="evenodd" clip-rule="evenodd" d="M34 25.0062L33.3076 24.6753L29.4874 29.686L29.7022 30.0405C30.0604 30.1114 30.4424 30.2296 30.8006 30.3478C28.389 32.924 25.2612 34.8621 21.7514 35.8784C21.5604 35.9494 21.3694 35.973 21.1545 35.973C19.9368 35.973 18.934 34.9803 18.934 33.7749V31.6477C23.8287 30.7732 28.1025 27.7006 30.4185 23.2808L28.9621 22.5718C26.3357 27.1097 22.0379 29.7096 17.0239 29.7096C10.4579 29.7096 5.13343 23.5408 5.13343 15.9539C5.13343 8.36691 10.4579 2.19809 17.0239 2.19809C21.823 2.19809 26.1447 5.50703 28.007 10.6359L28.0548 10.825L29.0337 10.3523L27.7444 0.378165H26.5267L25.5239 3.00169C22.7781 1.03995 19.5309 0 16.1166 0C7.23455 0 0 7.16151 0 15.9539C0 24.4153 6.68539 31.3641 15.1138 31.8604V33.7749C15.1138 34.9803 14.1348 35.973 12.9171 35.973C12.7022 35.973 12.4874 35.9494 12.2963 35.8784C8.78652 34.8621 5.65871 32.924 3.24719 30.3478C3.60534 30.2296 3.98736 30.1114 4.36938 30.0405L4.56039 29.686L0.740169 24.6753L0.0477528 25.0062L0.477528 31.0805L0.859551 31.2932C1.14607 31.1514 1.43258 31.0096 1.74298 30.8914C7.40169 38.3129 14.8989 38.2183 16.9045 42H17.0239H17.1433C19.1489 38.2183 26.6461 38.3129 32.3287 30.8914C32.6152 31.0096 32.9017 31.1514 33.1882 31.2932L33.5702 31.0805L34 25.0062Z" fill="#2E2E2E"/>
</svg>
